HIERARCHY
ROOT hip
{
  OFFSET -294.262 83.0666 22.0481
  CHANNELS 6 Xposition Yposition Zposition Zrotation Xrotation Yrotation
  JOINT abdomen
  {
    OFFSET 0 20.6881 -0.73152
    CHANNELS 3 Zrotation Xrotation Yrotation
    JOINT chest
    {
      OFFSET 0 11.7043 -0.48768
      CHANNELS 3 Zrotation Xrotation Yrotation
      JOINT neck
      {
        OFFSET 0 22.1894 -2.19456
        CHANNELS 3 Zrotation Xrotation Yrotation
        JOINT head
        {
          OFFSET -0.24384 7.07133 1.2192
          CHANNELS 3 Zrotation Xrotation Yrotation
          JOINT leftEye
          {
            OFFSET 4.14528 8.04674 8.04672
            CHANNELS 3 Zrotation Xrotation Yrotation
            End Site
            {
              OFFSET 1 0 0
            }
          }
          JOINT rightEye
          {
            OFFSET -3.6576 8.04674 8.04672
            CHANNELS 3 Zrotation Xrotation Yrotation
            End Site
            {
              OFFSET 1 0 0
            }
          }
        }
      }
      JOINT rCollar
      {
        OFFSET -2.68224 19.2634 -4.8768
        CHANNELS 3 Zrotation Xrotation Yrotation
        JOINT rShldr
        {
          OFFSET -8.77824 -1.95073 1.46304
          CHANNELS 3 Zrotation Xrotation Yrotation
          JOINT rForeArm
          {
            OFFSET -28.1742 -1.7115 0.48768
            CHANNELS 3 Zrotation Xrotation Yrotation
            JOINT rHand
            {
              OFFSET -22.5879 0.773209 7.07136
              CHANNELS 3 Zrotation Xrotation Yrotation
              JOINT rThumb1
              {
                OFFSET -1.2192 -0.487915 3.41376
                CHANNELS 3 Zrotation Xrotation Yrotation
                JOINT rThumb2
                {
                  OFFSET -3.37035 -0.52449 3.41376
                  CHANNELS 3 Zrotation Xrotation Yrotation
                  End Site
                  {
                    OFFSET -1.78271 -1.18214 1.43049
                  }
                }
              }
              JOINT rIndex1
              {
                OFFSET -7.75947 0.938293 5.60832
                CHANNELS 3 Zrotation Xrotation Yrotation
                JOINT rIndex2
                {
                  OFFSET -2.54057 -0.884171 1.56538
                  CHANNELS 3 Zrotation Xrotation Yrotation
                  End Site
                  {
                    OFFSET -1.62519 -0.234802 1.16502
                  }
                }
              }
              JOINT rMid1
              {
                OFFSET -8.24714 1.18213 3.41376
                CHANNELS 3 Zrotation Xrotation Yrotation
                JOINT rMid2
                {
                  OFFSET -3.10165 -0.590103 1.0647
                  CHANNELS 3 Zrotation Xrotation Yrotation
                  End Site
                  {
                    OFFSET -2.48547 -0.328903 0.83742
                  }
                }
              }
              JOINT rRing1
              {
                OFFSET -8.82822 0.546677 1.51678
                CHANNELS 3 Zrotation Xrotation Yrotation
                JOINT rRing2
                {
                  OFFSET -2.60934 -0.819778 -0.0198488
                  CHANNELS 3 Zrotation Xrotation Yrotation
                  End Site
                  {
                    OFFSET -2.33842 -0.294052 0.168128
                  }
                }
              }
              JOINT rPinky1
              {
                OFFSET -8.27202 -0.0477905 -0.4584
                CHANNELS 3 Zrotation Xrotation Yrotation
                JOINT rPinky2
                {
                  OFFSET -1.82734 -0.647385 -0.700984
                  CHANNELS 3 Zrotation Xrotation Yrotation
                  End Site
                  {
                    OFFSET -1.69225 -0.51767 -0.607171
                  }
                }
              }
            }
          }
        }
      }
      JOINT lCollar
      {
        OFFSET 2.68224 19.2634 -4.8768
        CHANNELS 3 Zrotation Xrotation Yrotation
        JOINT lShldr
        {
          OFFSET 8.77824 -1.95073 1.46304
          CHANNELS 3 Zrotation Xrotation Yrotation
          JOINT lForeArm
          {
            OFFSET 28.1742 -1.7115 0.48768
            CHANNELS 3 Zrotation Xrotation Yrotation
            JOINT lHand
            {
              OFFSET 22.5879 0.773209 7.07136
              CHANNELS 3 Zrotation Xrotation Yrotation
              JOINT lThumb1
              {
                OFFSET 1.2192 -0.487915 3.41376
                CHANNELS 3 Zrotation Xrotation Yrotation
                JOINT lThumb2
                {
                  OFFSET 3.37035 -0.52449 3.41376
                  CHANNELS 3 Zrotation Xrotation Yrotation
                  End Site
                  {
                    OFFSET 1.78271 -1.18214 1.43049
                  }
                }
              }
              JOINT lIndex1
              {
                OFFSET 7.75947 0.938293 5.60832
                CHANNELS 3 Zrotation Xrotation Yrotation
                JOINT lIndex2
                {
                  OFFSET 2.54057 -0.884171 1.56538
                  CHANNELS 3 Zrotation Xrotation Yrotation
                  End Site
                  {
                    OFFSET 1.62519 -0.234802 1.16502
                  }
                }
              }
              JOINT lMid1
              {
                OFFSET 8.24714 1.18213 3.41376
                CHANNELS 3 Zrotation Xrotation Yrotation
                JOINT lMid2
                {
                  OFFSET 3.10165 -0.590103 1.0647
                  CHANNELS 3 Zrotation Xrotation Yrotation
                  End Site
                  {
                    OFFSET 2.48547 -0.328903 0.83742
                  }
                }
              }
              JOINT lRing1
              {
                OFFSET 8.82822 0.546677 1.51678
                CHANNELS 3 Zrotation Xrotation Yrotation
                JOINT lRing2
                {
                  OFFSET 2.60934 -0.819778 -0.0198488
                  CHANNELS 3 Zrotation Xrotation Yrotation
                  End Site
                  {
                    OFFSET 2.33842 -0.294052 0.168128
                  }
                }
              }
              JOINT lPinky1
              {
                OFFSET 8.27202 -0.0477905 -0.4584
                CHANNELS 3 Zrotation Xrotation Yrotation
                JOINT lPinky2
                {
                  OFFSET 1.82734 -0.647385 -0.700984
                  CHANNELS 3 Zrotation Xrotation Yrotation
                  End Site
                  {
                    OFFSET 1.69225 -0.51767 -0.607171
                  }
                }
              }
            }
          }
        }
      }
    }
  }
  JOINT rButtock
  {
    OFFSET -8.77824 4.35084 1.2192
    CHANNELS 3 Zrotation Xrotation Yrotation
    JOINT rThigh
    {
      OFFSET 0 -1.70687 -2.19456
      CHANNELS 3 Zrotation Xrotation Yrotation
      JOINT rShin
      {
        OFFSET 0 -36.8199 0.73152
        CHANNELS 3 Zrotation Xrotation Yrotation
        JOINT rFoot
        {
          OFFSET 0.73152 -45.1104 -5.12064
          CHANNELS 3 Zrotation Xrotation Yrotation
          End Site
          {
            OFFSET -1.1221 -3.69964 12.103
          }
        }
      }
    }
  }
  JOINT lButtock
  {
    OFFSET 8.77824 4.35084 1.2192
    CHANNELS 3 Zrotation Xrotation Yrotation
    JOINT lThigh
    {
      OFFSET 0 -1.70687 -2.19456
      CHANNELS 3 Zrotation Xrotation Yrotation
      JOINT lShin
      {
        OFFSET 0 -36.8199 0.73152
        CHANNELS 3 Zrotation Xrotation Yrotation
        JOINT lFoot
        {
          OFFSET -0.73152 -45.1104 -5.12064
          CHANNELS 3 Zrotation Xrotation Yrotation
          End Site
          {
            OFFSET 1.1221 -3.69964 12.103
          }
        }
      }
    }
  }
}
MOTION
Frames:	4
Frame Time:	0.00833333
-37.7162 82.1602 5.23061 -6.21835 4.73943 96.431 -2.51895 33.2988 70.3653 -175.08 2.98823 -58.3319 -6.80107 36.3368 36.1728 -147.897 -26.3905 33.7103 -0 0 0 -0 0 0 8.4792e-014 -1.19427e-012 4.78574e-014 -139.193 41.818 48.2714 -27.6638 -28.8857 65.4732 -9.18246 -61.8937 -15.2564 -1.36174e-009 -8.23434e-010 -4.37237e-010 -2.31735e-009 -1.49421e-009 -8.22379e-010 -1.36174e-009 -8.2344e-010 -4.37244e-010 7.73091 5.47488 0.417314 -1.36174e-009 -8.23436e-010 -4.37244e-010 2.90554 0.965183 0.102902 -1.36174e-009 -8.23433e-010 -4.37242e-010 10.2786 0.731801 0.0259123 -1.36174e-009 -8.23431e-010 -4.37237e-010 2.22167 -0.733487 -0.20892 8.45781e-014 -1.19428e-012 4.75592e-014 117.003 -24.2246 -75.2544 28.3515 -33.4986 -72.8809 6.17704 -55.3723 11.7426 -1.3824e-009 -2.98674e-010 -5.96351e-010 -2.35169e-009 -5.62513e-010 -1.08967e-009 -1.3824e-009 -2.98673e-010 -5.96344e-010 -7.73091 5.47488 -0.417314 -1.38239e-009 -2.98676e-010 -5.96357e-010 -2.90554 0.965183 -0.102902 -1.3824e-009 -2.98676e-010 -5.9636e-010 -10.2786 0.731801 -0.0259123 -1.38239e-009 -2.98674e-010 -5.9637e-010 -2.22167 -0.733487 0.20892 -2.03217e-016 0 -3.88251e-019 3.0474 -8.09996 0.412213 -0.410712 39.8688 0.297748 -1.3216 1.24289 -15.964 2.03217e-016 0 3.88251e-019 9.69753 -35.4219 -2.01774 0.0671515 23.8219 -0.115763 0.281759 3.3439 7.30479 
-38.7427 82.1886 5.48067 -6.02557 4.61286 95.7219 -2.75377 33.3136 70.0401 -175.124 3.05126 -57.7908 -7.01327 36.3751 36.3026 -148.22 -26.6952 32.8711 -0 0 0 -0 0 0 9.70877e-014 -2.57704e-012 5.56966e-014 -139.426 41.6293 48.9019 -27.568 -28.4699 64.8204 -9.29631 -62.0889 -15.3854 -1.52396e-009 -8.34769e-010 -3.50323e-010 -2.60033e-009 -1.53547e-009 -6.81201e-010 -1.52396e-009 -8.3477e-010 -3.5033e-010 7.73091 5.47488 0.417314 -1.52396e-009 -8.34771e-010 -3.50328e-010 2.90554 0.965183 0.102902 -1.52396e-009 -8.34765e-010 -3.50327e-010 10.2786 0.731801 0.0259123 -1.52396e-009 -8.34764e-010 -3.50323e-010 2.22167 -0.733487 -0.20892 9.687e-014 -2.57704e-012 5.54209e-014 117.085 -23.2639 -74.5818 28.3718 -33.7758 -73.3282 6.20249 -55.4416 11.7735 -1.81282e-009 -4.47625e-010 -8.42805e-010 -3.08061e-009 -8.18254e-010 -1.53158e-009 -1.81282e-009 -4.47623e-010 -8.42793e-010 -7.73091 5.47488 -0.417314 -1.81281e-009 -4.47627e-010 -8.4281e-010 -2.90554 0.965183 -0.102902 -1.81282e-009 -4.47627e-010 -8.42813e-010 -10.2786 0.731801 -0.0259123 -1.81281e-009 -4.47626e-010 -8.42822e-010 -2.22167 -0.733487 0.20892 -2.03217e-016 0 -3.88251e-019 2.81442 -8.68298 0.152203 -0.442006 41.2297 0.320288 -1.05408 2.29246 -16.0875 2.03217e-016 0 3.88251e-019 8.74937 -35.0948 -2.50164 0.0718425 24.2587 -0.122935 0.295911 3.25328 6.51185 
-39.7669 82.2231 5.73367 -5.82942 4.44497 94.9928 -2.98349 33.3392 69.7 -175.167 3.11582 -57.2489 -7.2332 36.4147 36.4421 -148.546 -27.0047 32.0227 -0 0 0 -0 0 0 1.03925e-013 -2.13026e-012 8.09768e-014 -139.679 41.4157 49.5616 -27.478 -28.0929 64.2133 -9.42781 -62.3106 -15.534 -1.94658e-009 -9.79756e-010 -3.23043e-010 -3.32704e-009 -1.8166e-009 -6.54619e-010 -1.94658e-009 -9.79752e-010 -3.2305e-010 7.73091 5.47488 0.417314 -1.94659e-009 -9.79758e-010 -3.23043e-010 2.90554 0.965183 0.102902 -1.94658e-009 -9.7975e-010 -3.23044e-010 10.2786 0.731801 0.0259123 -1.94659e-009 -9.7975e-010 -3.23041e-010 2.22167 -0.733487 -0.20892 1.03703e-013 -2.13027e-012 8.07407e-014 117.204 -22.2004 -73.8753 28.3898 -34.0752 -73.8181 6.22068 -55.491 11.7956 -2.8924e-009 -8.41134e-010 -1.63277e-009 -4.90207e-009 -1.49344e-009 -2.93474e-009 -2.89241e-009 -8.41129e-010 -1.63275e-009 -7.73091 5.47488 -0.417314 -2.8924e-009 -8.41137e-010 -1.63277e-009 -2.90554 0.965183 -0.102902 -2.89241e-009 -8.41136e-010 -1.63277e-009 -10.2786 0.731801 -0.0259123 -2.8924e-009 -8.41135e-010 -1.63278e-009 -2.22167 -0.733487 0.20892 -2.03217e-016 0 -3.88251e-019 2.57493 -9.31896 -0.143108 -0.475889 42.6002 0.343973 -0.787514 3.31872 -16.1651 2.03217e-016 0 3.88251e-019 7.79488 -34.729 -3.00152 0.0766451 24.6724 -0.131081 0.310338 3.1288 5.73416 
-40.7879 82.2631 5.98907 -5.6363 4.29632 94.2396 -3.21147 33.3725 69.3532 -175.21 3.18174 -56.7123 -7.45801 36.4545 36.5884 -148.874 -27.3149 31.1743 -0 0 0 -0 0 0 1.08053e-013 -1.01633e-012 1.0519e-013 -139.955 41.171 50.254 -27.3939 -27.7547 63.6678 -9.57458 -62.5534 -15.6996 -2.35328e-009 -1.15201e-009 -3.35132e-010 -4.02428e-009 -2.14106e-009 -6.94649e-010 -2.35327e-009 -1.152e-009 -3.3514e-010 7.73091 5.47488 0.417314 -2.35328e-009 -1.15201e-009 -3.35128e-010 2.90554 0.965183 0.102902 -2.35327e-009 -1.152e-009 -3.35131e-010 10.2786 0.731801 0.0259123 -2.35328e-009 -1.152e-009 -3.35129e-010 2.22167 -0.733487 -0.20892 1.07833e-013 -1.01633e-012 1.04987e-013 117.361 -21.0711 -73.1277 28.4047 -34.3854 -74.3304 6.22885 -55.5132 11.8055 -4.04018e-009 -1.25535e-009 -2.48376e-009 -6.83827e-009 -2.20582e-009 -4.44571e-009 -4.04019e-009 -1.25534e-009 -2.48373e-009 -7.73091 5.47488 -0.417314 -4.04018e-009 -1.25535e-009 -2.48376e-009 -2.90554 0.965183 -0.102902 -4.04019e-009 -1.25535e-009 -2.48377e-009 -10.2786 0.731801 -0.0259123 -4.04018e-009 -1.25535e-009 -2.48377e-009 -2.22167 -0.733487 0.20892 -2.03217e-016 0 -3.88251e-019 2.3268 -10.003 -0.463382 -0.511643 43.9519 0.368997 -0.532832 4.2912 -16.2019 2.03217e-016 0 3.88251e-019 6.85013 -34.3245 -3.5027 0.0810324 25.0543 -0.140221 0.324346 2.97387 4.97807 
